<svg xmlns="http://www.w3.org/2000/svg" version="1.1" xmlns:xlink="http://www.w3.org/1999/xlink" xmlns:svgjs="http://svgjs.dev/svgjs" width="128" height="128" viewBox="0 0 128 128"><g transform="matrix(0.8046875,0,0,0.8046875,12.419292403749637,4.754620230263157)"><svg viewBox="0 0 82 95" data-background-color="#ffffff" preserveAspectRatio="xMidYMid meet" height="148" width="128" xmlns="http://www.w3.org/2000/svg" xmlns:xlink="http://www.w3.org/1999/xlink"><g id="tight-bounds" transform="matrix(1,0,0,1,0.06425264944203946,-0.24049999999999727)"><svg viewBox="0 0 81.87149470111594 95.481" height="95.481" width="81.87149470111594"><g><svg viewBox="0 0 81.87149470111594 95.481" height="95.481" width="81.87149470111594"><g><svg viewBox="0 0 81.87149470111594 95.481" height="95.481" width="81.87149470111594"><g id="textblocktransform"><svg viewBox="0 0 81.87149470111594 95.481" height="95.481" width="81.87149470111594" id="textblock"><g><svg viewBox="0 0 81.87149470111594 95.481" height="95.481" width="81.87149470111594"><g><svg viewBox="0 0 81.87149470111594 95.481" height="95.481" width="81.87149470111594"><g><svg xmlns="http://www.w3.org/2000/svg" xmlns:xlink="http://www.w3.org/1999/xlink" version="1.1" x="0" y="0" viewBox="11.458035230197366 5 77.08598960662668 89.89999999999999" enable-background="new 0 0 100 100" xml:space="preserve" height="95.481" width="81.87149470111594" class="icon-icon-0" data-fill-palette-color="accent" id="icon-0"><g fill="#61777f" data-fill-palette-color="accent"><path fill="#000000" d="M52.2 88.5c0-0.1 0-0.2 0-0.3-0.6 0-1.2 0-1.8 0-0.7 0-1.4 0-2.1 0 0 0.1 0 0.3 0.1 0.5 0 0.6 0 1.1-0.2 1.6 1.4 0.1 2.9 0.1 4.3 0C52.2 89.7 52.1 89.1 52.2 88.5z" data-fill-palette-color="accent"></path><path fill="#000000" d="M43.2 86.6c-0.3-0.4-0.8-1-1.6-1-0.2 0-0.5 0-0.7 0.2-0.4 0.2-0.7 0.6-0.9 1.1C39.6 86.4 39 86 38.1 86c-0.3 0-0.7 0.1-1.2 0.2-0.4 0.2-0.7 0.6-0.9 1.1-0.4-0.2-1-0.6-1.8-0.6-0.3 0-0.6 0-0.9 0.1-1.7 0.5-2.2 7.1 3.1 8.1 0 0 1 0 1.3-0.9 0.5 0.5 1 0.8 1.7 0.9 0 0 0.8-0.1 1.1-1.1 0.4 0.5 0.8 0.8 1.3 0.8 0.1 0 0.2 0 0.3 0 0.9-0.2 1.4-1 1.6-2.1 1-0.7 2.7-2.1 2.6-3.8C46.1 86.8 43.8 86.6 43.2 86.6z" data-fill-palette-color="accent"></path><path fill="#000000" d="M67.1 86.7c-0.3-0.1-0.6-0.1-0.9-0.1-0.8 0-1.4 0.4-1.8 0.6-0.2-0.6-0.5-1-0.9-1.1-0.4-0.2-0.8-0.2-1.2-0.2-0.8 0-1.4 0.4-1.8 0.8-0.2-0.5-0.5-0.9-0.9-1.1-0.3-0.1-0.5-0.2-0.7-0.2-0.8 0-1.3 0.6-1.6 1-0.7 0-3 0.2-3.1 2.2-0.1 1.7 1.5 3.1 2.6 3.8 0.2 1.1 0.7 1.9 1.6 2.1 0.1 0 0.2 0 0.3 0 0.5 0 1-0.3 1.3-0.8 0.3 1 1.1 1.1 1.1 1.1 0.6-0.1 1.2-0.4 1.7-0.9 0.3 0.8 1.3 0.9 1.3 0.9C69.3 93.8 68.9 87.3 67.1 86.7z" data-fill-palette-color="accent"></path><path fill="#000000" d="M85 49.4c-0.4-0.2-0.8-0.4-1.2-0.5-0.1 0-0.8-0.2-1.7-0.2-2.4 0.1-7.1 1.7-9.6 12.1-3.2 12.9 2.9 17.9 2.9 17.9s7.3-0.6 11.3-12.4C90.2 55.7 88.2 51.2 85 49.4z" data-fill-palette-color="accent"></path><path fill="#000000" d="M27.6 61.4c-3-10.2-7.6-11.7-10.1-11.7-1 0-1.6 0.2-1.6 0.2-3.8 1.4-6.6 5.9-2.2 17.5 4.4 11.7 11.8 11.9 11.8 11.9S31.3 74.1 27.6 61.4z" data-fill-palette-color="accent"></path><circle fill="#000000" cx="41.4" cy="46.3" r="2.3" data-fill-palette-color="accent"></circle><circle fill="#000000" cx="58.5" cy="46.3" r="2.3" data-fill-palette-color="accent"></circle><polygon fill="#000000" points="45.9,70.5 40,70.5 43,73.1  " data-fill-palette-color="accent"></polygon><polygon fill="#000000" points="50.7,73.1 53.6,70.5 47.7,70.5  " data-fill-palette-color="accent"></polygon><polygon fill="#000000" points="50.8,82.4 53.7,79.8 47.8,79.8  " data-fill-palette-color="accent"></polygon><polygon fill="#000000" points="44,75.2 47,77.9 49.9,75.2  " data-fill-palette-color="accent"></polygon><polygon fill="#000000" points="54.5,77.9 57.4,75.2 51.5,75.2  " data-fill-palette-color="accent"></polygon><polygon fill="#000000" points="61.3,70.5 55.4,70.5 58.4,73.1  " data-fill-palette-color="accent"></polygon><polygon fill="#000000" points="27.3,38.7 25.9,32.2 23.4,32.2 21.9,38.7 22,38.7 21.9,39 27.3,39 27.3,38.7 27.3,38.7  " data-fill-palette-color="accent"></polygon><path fill="#000000" d="M71 60.4c2.6-10.5 7.4-12.9 10.5-13.2-2.4-9.7-7.8-15-7.8-15v-7.8L50.4 36.2l-0.9 0.5-0.9-0.5L27.9 25.5l0 5.9 0 0.5 1.4 6.4 0.6 2.5h-2.6-5.4-0.8c-1 2.1-1.8 4.6-2.5 7.5 3 0.4 7.6 2.8 10.5 12.7 3.9 13.5-2.3 19.3-2.6 19.6l-0.2 0.2c1.7 1.9 3.7 3.5 5.6 4.7 0.2-0.2 0.5-0.3 0.8-0.4 0.5-0.2 1-0.2 1.5-0.2 0.4 0 0.8 0.1 1.1 0.1 0.3-0.2 0.6-0.4 0.8-0.5 0.2-0.1 0.5-0.2 0.7-0.2-1.6-2-2.5-5-2.5-9.3 0-8 7.2-13.9 16-13.9s16 6 16 13.9c0 4.3-0.9 7.2-2.5 9.2 0.1 0 0.3 0.1 0.4 0.1 0.3 0.1 0.5 0.3 0.8 0.5 0.3-0.1 0.7-0.1 1.1-0.1 0.5 0 1 0.1 1.5 0.2 0.3 0.1 0.6 0.3 0.9 0.5 2.1-1.3 4.2-3.1 6-5.2l-0.2-0.2C74.2 79.6 67.7 74 71 60.4zM39.1 56.4c-5.6 0-10.1-4.5-10.1-10.1s4.5-10.1 10.1-10.1c5.6 0 10.1 4.5 10.1 10.1S44.7 56.4 39.1 56.4zM50.3 59.5l-3.1-3.8c0 0 1-2.1 2.8-2.1 1.8 0 3.1 1.8 3.1 1.8L50.3 59.5zM61.7 56.4c-5.6 0-10.1-4.5-10.1-10.1s4.5-10.1 10.1-10.1c5.6 0 10.1 4.5 10.1 10.1S67.3 56.4 61.7 56.4z" data-fill-palette-color="accent"></path><polygon fill="#000000" points="23.4,20.8 23.4,30.1 25.8,30.1 25.8,22.1 49.5,34.4 76.5,20.5 79.6,18.6 49.5,5 19.3,18.6    20.5,19.4  " data-fill-palette-color="accent"></polygon></g></svg></g></svg></g></svg></g></svg></g></svg></g><g></g></svg></g><defs></defs></svg><rect width="81.87149470111594" height="95.481" fill="none" stroke="none" visibility="hidden"></rect></g></svg></g></svg>