<svg xmlns="http://www.w3.org/2000/svg" data-name="Layer 1" viewBox="0 0 100 125" x="0px" y="0px"><title>82 all</title><path d="M50,9.15A30.14,30.14,0,0,0,35,65.47V86.85a4,4,0,0,0,4,4H61a4,4,0,0,0,4-4V65.47A30.14,30.14,0,0,0,50,9.15ZM48.43,45.48a4,4,0,0,0,4.06-.34L51,58.91H49.85ZM43,66.91H57v6.93H43Zm0,15.93v-1H57v1ZM60.32,58.91H59.08l2.53-24.08a4,4,0,0,0-6.81-3.25l-4.53,4.53-4.11-4.42a4,4,0,0,0-6.91,3.14L41.8,58.91H39.69a22.15,22.15,0,1,1,20.63,0Z"/><text x="0" y="115" fill="#000000" font-size="5px" font-weight="bold" font-family="'Helvetica Neue', Helvetica, Arial-Unicode, Arial, Sans-serif">Created by Ramesha</text><text x="0" y="120" fill="#000000" font-size="5px" font-weight="bold" font-family="'Helvetica Neue', Helvetica, Arial-Unicode, Arial, Sans-serif">from the Noun Project</text></svg>