<svg xmlns="http://www.w3.org/2000/svg" viewBox="0 0 64 80" x="0px" y="0px"><g data-name="Graduation Hat"><path d="M60,24a1,1,0,0,1-.7158.959L54,26.5247V41a.9993.9993,0,0,1,.9863.8359l1,6A1,1,0,0,1,55,49H51a1,1,0,0,1-.9863-1.1641l1-6A.9994.9994,0,0,1,52,41V27.1172L32.2842,32.959a1.0055,1.0055,0,0,1-.5684,0l-27-8a1,1,0,0,1,0-1.918l27-8a1.0049,1.0049,0,0,1,.5684,0l27,8A1.0005,1.0005,0,0,1,60,24ZM32,35a2.9812,2.9812,0,0,1-.85-.123L17,30.6847V42c0,3.4355,7.7754,5,15,5s15-1.5645,15-5V30.6846L32.8525,34.877A3.016,3.016,0,0,1,32,35Z"/></g><text x="0" y="79" fill="#000000" font-size="5px" font-weight="bold" font-family="'Helvetica Neue', Helvetica, Arial-Unicode, Arial, Sans-serif">Created by Bartama Graphic</text><text x="0" y="84" fill="#000000" font-size="5px" font-weight="bold" font-family="'Helvetica Neue', Helvetica, Arial-Unicode, Arial, Sans-serif">from the Noun Project</text></svg>