<svg xmlns="http://www.w3.org/2000/svg" xmlns:xlink="http://www.w3.org/1999/xlink" version="1.1" x="0px" y="0px" viewBox="0 0 90 112.5" enable-background="new 0 0 90 90" xml:space="preserve"><g display="none"><g display="inline"><g><path fill-rule="evenodd" clip-rule="evenodd" d="M8.285,76.525c1.005,0.016,2.011,0.021,3.016,0.049     c0.426,0.012,0.555-0.194,0.55-0.584c-0.01-0.858-0.002-1.719,0-2.578c0.001-0.976,0.001-0.978,0.941-0.978     c0.565-0.001,1.133-0.037,1.694,0.01c0.688,0.058,0.985-0.158,0.93-0.896c-0.059-0.78,0.045-1.576-0.03-2.354     c-0.078-0.794,0.25-1.011,0.959-0.914c0.168,0.024,0.343,0.003,0.515,0.003c18.934,0,37.868,0,56.801,0     c1.064,0,1.064,0.002,1.064,1.084c0,0.786,0.023,1.572-0.008,2.358c-0.022,0.553,0.207,0.738,0.739,0.716     c0.687-0.029,1.377,0.033,2.062-0.017c0.636-0.048,0.807,0.208,0.776,0.802c-0.042,0.833,0.021,1.673-0.021,2.506     c-0.03,0.628,0.161,0.892,0.829,0.853c0.853-0.052,1.71-0.014,2.672-0.014c0,1.283,0.009,2.5-0.015,3.718     c-0.002,0.104-0.199,0.259-0.329,0.291c-0.21,0.05-0.439,0.018-0.66,0.018c-23.821,0-47.642,0-71.463,0.002     c-0.341,0-0.683,0.035-1.024,0.053C8.285,79.277,8.285,77.901,8.285,76.525z"/><path fill-rule="evenodd" clip-rule="evenodd" d="M45.134,10.195c1.239,0.625,2.467,1.276,3.721,1.869     c9.325,4.413,18.654,8.821,27.993,13.205c0.705,0.331,1.05,0.684,0.995,1.524c-0.104,1.565,0.196,1.354-1.395,1.354     c-21.021,0.005-42.044,0.003-63.066,0.003c-1.076,0-1.002-0.006-1.097-1.061c-0.09-1.001,0.267-1.492,1.188-1.922     c10.278-4.806,20.533-9.662,30.791-14.51c0.256-0.121,0.482-0.306,0.722-0.461C45.036,10.195,45.085,10.195,45.134,10.195z"/><path fill-rule="evenodd" clip-rule="evenodd" d="M41.835,66.914c-2.459,0-4.79-0.005-7.12,0.003     c-0.441,0-0.448-0.278-0.437-0.593c0.043-1.275,0.6-25.048,0.732-30.838c0.011-0.467,0.138-0.66,0.627-0.654     c1.571,0.02,3.143,0.023,4.714-0.001c0.504-0.008,0.601,0.199,0.611,0.656c0.09,4.269,0.787,28.131,0.872,30.532     C41.844,66.283,41.835,66.545,41.835,66.914z"/><path fill-rule="evenodd" clip-rule="evenodd" d="M20.961,66.927c-0.556,0.021-0.72-0.172-0.702-0.719     c0.112-3.632,0.724-29.333,0.744-30.78c0.006-0.451,0.155-0.601,0.598-0.596c1.572,0.018,3.145,0.02,4.717,0     c0.5-0.007,0.623,0.22,0.631,0.669c0.034,1.743,0.731,26.895,0.879,30.769c0.018,0.469-0.1,0.668-0.604,0.654     C26.145,66.895,21.967,66.891,20.961,66.927z"/><path fill-rule="evenodd" clip-rule="evenodd" d="M52.071,66.917c-1.056,0-2.111-0.019-3.167,0.008     c-0.481,0.012-0.642-0.153-0.626-0.637c0.07-2.182,0.101-4.366,0.165-6.549c0.071-2.428,0.183-4.854,0.242-7.281     c0.081-3.237,0.122-6.476,0.192-9.715c0.052-2.354,0.135-4.708,0.181-7.063c0.013-0.646,0.246-0.882,0.922-0.857     c1.445,0.053,2.896,0.029,4.344,0.01c0.461-0.007,0.638,0.124,0.648,0.621c0.081,3.752,0.189,7.504,0.294,11.254     c0.151,5.47,0.306,10.938,0.463,16.405c0.028,1.005,0.052,2.01,0.124,3.013c0.044,0.596-0.129,0.835-0.764,0.804     C54.084,66.881,53.077,66.917,52.071,66.917z"/><path fill-rule="evenodd" clip-rule="evenodd" d="M62.392,66.874c0-0.448-0.006-0.855,0.001-1.265     c0.062-3.265,0.116-6.528,0.192-9.794c0.143-6.157,0.296-12.316,0.451-18.475c0.017-0.662,0.094-1.323,0.107-1.985     c0.009-0.38,0.157-0.52,0.53-0.518c1.596,0.01,3.192,0.014,4.789-0.002c0.456-0.005,0.504,0.237,0.517,0.603     c0.081,2.428,0.197,4.854,0.264,7.282c0.125,4.637,0.217,9.275,0.335,13.911c0.081,3.165,0.171,6.33,0.287,9.493     c0.021,0.598-0.134,0.816-0.767,0.806c-2.037-0.036-4.076-0.012-6.114-0.016C62.794,66.915,62.603,66.889,62.392,66.874z"/><path fill-rule="evenodd" clip-rule="evenodd" d="M45.065,33.472c-8.474,0-16.947,0-25.421,0c-1.005,0-1.005-0.001-1.005-0.994     c0.001-0.786,0.02-1.572-0.006-2.357c-0.015-0.454,0.163-0.631,0.603-0.591c0.17,0.015,0.344,0.001,0.516,0.001     c16.897,0,33.795,0,50.693,0c1.048,0,1.048,0,1.049,1.026c0,0.761-0.022,1.523,0.006,2.284c0.019,0.487-0.176,0.668-0.646,0.632     c-0.293-0.022-0.589-0.001-0.884-0.001C61.668,33.472,53.367,33.472,45.065,33.472z"/></g></g></g><g><rect x="21.05" y="34.835" fill-rule="evenodd" clip-rule="evenodd" width="5.734" height="32.096"/><rect x="35.16" y="34.835" fill-rule="evenodd" clip-rule="evenodd" width="5.734" height="32.096"/><rect x="49.171" y="34.835" fill-rule="evenodd" clip-rule="evenodd" width="5.733" height="32.096"/><rect x="63.232" y="34.835" fill-rule="evenodd" clip-rule="evenodd" width="5.733" height="32.096"/><rect x="18.536" y="29.523" fill-rule="evenodd" clip-rule="evenodd" width="52.868" height="3.954"/><rect x="15.438" y="68.311" fill-rule="evenodd" clip-rule="evenodd" width="59.332" height="3.667"/><rect x="8.254" y="77.423" fill-rule="evenodd" clip-rule="evenodd" width="73.492" height="3.667"/><rect x="11.818" y="72.923" fill-rule="evenodd" clip-rule="evenodd" width="66.434" height="3.667"/><path fill-rule="evenodd" clip-rule="evenodd" d="M77.641,25.867h0.01L44.963,5.345L12.344,25.867h0.022   c-0.332,0.251-0.549,0.645-0.549,1.093c0,0.759,0.615,1.01,1.375,1.01h63.622c0.759,0,1.375-0.251,1.375-1.01   C78.19,26.512,77.972,26.118,77.641,25.867z"/></g><text x="0" y="105" fill="#000000" font-size="5px" font-weight="bold" font-family="'Helvetica Neue', Helvetica, Arial-Unicode, Arial, Sans-serif">Created by Syafiqa Fickle</text><text x="0" y="110" fill="#000000" font-size="5px" font-weight="bold" font-family="'Helvetica Neue', Helvetica, Arial-Unicode, Arial, Sans-serif">from the Noun Project</text></svg>