<svg xmlns="http://www.w3.org/2000/svg" xmlns:xlink="http://www.w3.org/1999/xlink" version="1.1" x="0px" y="0px" viewBox="0 0 32 40" style="enable-background:new 0 0 32 32;" xml:space="preserve"><g><path d="M8.5,26V6.5h-1v21h15v-1H9C8.72,26.5,8.5,26.28,8.5,26z"/><polygon points="22.5,5.21 22.5,6.5 23.79,6.5  "/><path d="M22,7.5c-0.28,0-0.5-0.22-0.5-0.5V4.5h-12v21h15v-18H22z M11,8.5h6c0.28,0,0.5,0.22,0.5,0.5S17.28,9.5,17,9.5h-6   c-0.28,0-0.5-0.22-0.5-0.5S10.72,8.5,11,8.5z M11,10.5h6c0.28,0,0.5,0.22,0.5,0.5s-0.22,0.5-0.5,0.5h-6c-0.28,0-0.5-0.22-0.5-0.5   S10.72,10.5,11,10.5z M23,23.5H11c-0.28,0-0.5-0.22-0.5-0.5s0.22-0.5,0.5-0.5h12c0.28,0,0.5,0.22,0.5,0.5S23.28,23.5,23,23.5z    M23,21.5H11c-0.28,0-0.5-0.22-0.5-0.5s0.22-0.5,0.5-0.5h12c0.28,0,0.5,0.22,0.5,0.5S23.28,21.5,23,21.5z M23,19.5H11   c-0.28,0-0.5-0.22-0.5-0.5s0.22-0.5,0.5-0.5h12c0.28,0,0.5,0.22,0.5,0.5S23.28,19.5,23,19.5z M23,17.5H11c-0.28,0-0.5-0.22-0.5-0.5   s0.22-0.5,0.5-0.5h12c0.28,0,0.5,0.22,0.5,0.5S23.28,17.5,23,17.5z M23,15.5H11c-0.28,0-0.5-0.22-0.5-0.5s0.22-0.5,0.5-0.5h12   c0.28,0,0.5,0.22,0.5,0.5S23.28,15.5,23,15.5z M23,13.5H11c-0.28,0-0.5-0.22-0.5-0.5s0.22-0.5,0.5-0.5h12c0.28,0,0.5,0.22,0.5,0.5   S23.28,13.5,23,13.5z"/></g><text x="0" y="47" fill="#000000" font-size="5px" font-weight="bold" font-family="'Helvetica Neue', Helvetica, Arial-Unicode, Arial, Sans-serif">Created by balyanbinmalkan</text><text x="0" y="52" fill="#000000" font-size="5px" font-weight="bold" font-family="'Helvetica Neue', Helvetica, Arial-Unicode, Arial, Sans-serif">from the Noun Project</text></svg>